<svg width="25" height="24" viewBox="0 0 25 24" fill="none" xmlns="http://www.w3.org/2000/svg">
<path d="M21.4021 12.5341C21.4995 12.2789 21.5249 11.998 21.4753 11.7271C21.4256 11.4562 21.303 11.2073 21.1231 11.012L15.9799 5.42631C15.8613 5.29294 15.7194 5.18656 15.5626 5.11337C15.4057 5.04019 15.237 5.00166 15.0662 5.00005C14.8955 4.99844 14.7262 5.03377 14.5682 5.10399C14.4102 5.1742 14.2666 5.27789 14.1459 5.409C14.0252 5.54012 13.9297 5.69603 13.865 5.86765C13.8004 6.03926 13.7678 6.22315 13.7693 6.40856C13.7708 6.59398 13.8063 6.77722 13.8737 6.94759C13.9411 7.11796 14.039 7.27205 14.1618 7.40086L17.1114 10.6043H4.7858C4.44478 10.6043 4.11773 10.7514 3.8766 11.0133C3.63547 11.2752 3.5 11.6303 3.5 12.0007C3.5 12.3711 3.63547 12.7262 3.8766 12.9881C4.11773 13.25 4.44478 13.3971 4.7858 13.3971H17.1114L14.1631 16.5991C14.0403 16.728 13.9423 16.882 13.875 17.0524C13.8076 17.2228 13.7721 17.406 13.7706 17.5914C13.7691 17.7769 13.8017 17.9607 13.8663 18.1324C13.931 18.304 14.0264 18.4599 14.1472 18.591C14.2679 18.7221 14.4115 18.8258 14.5695 18.896C14.7275 18.9662 14.8968 19.0016 15.0675 18.9999C15.2383 18.9983 15.407 18.9598 15.5639 18.8866C15.7207 18.8134 15.8626 18.7071 15.9812 18.5737L21.1244 12.988C21.2435 12.858 21.3379 12.7038 21.4021 12.5341Z" fill="black"/>
</svg>
