<svg width="34" height="34" viewBox="0 0 34 34" fill="none" xmlns="http://www.w3.org/2000/svg">
<rect x="0.5" y="0.5" width="33" height="33" rx="16.5" stroke="currentColor"/>
<g clip-path="url(#clip0_2628_7285)">
<path d="M17 9.5C19.0378 9.5 19.292 9.5075 20.0915 9.545C20.8903 9.5825 21.434 9.70775 21.9125 9.89375C22.4075 10.0843 22.8245 10.3422 23.2415 10.7585C23.6229 11.1334 23.918 11.5869 24.1063 12.0875C24.2915 12.5652 24.4175 13.1097 24.455 13.9085C24.4903 14.708 24.5 14.9622 24.5 17C24.5 19.0378 24.4925 19.292 24.455 20.0915C24.4175 20.8903 24.2915 21.434 24.1063 21.9125C23.9185 22.4133 23.6233 22.867 23.2415 23.2415C22.8665 23.6227 22.413 23.9178 21.9125 24.1063C21.4347 24.2915 20.8903 24.4175 20.0915 24.455C19.292 24.4903 19.0378 24.5 17 24.5C14.9622 24.5 14.708 24.4925 13.9085 24.455C13.1097 24.4175 12.566 24.2915 12.0875 24.1063C11.5867 23.9184 11.1331 23.6232 10.7585 23.2415C10.3771 22.8666 10.0819 22.4131 9.89375 21.9125C9.70775 21.4347 9.5825 20.8903 9.545 20.0915C9.50975 19.292 9.5 19.0378 9.5 17C9.5 14.9622 9.5075 14.708 9.545 13.9085C9.5825 13.109 9.70775 12.566 9.89375 12.0875C10.0814 11.5866 10.3766 11.133 10.7585 10.7585C11.1333 10.3769 11.5868 10.0818 12.0875 9.89375C12.566 9.70775 13.109 9.5825 13.9085 9.545C14.708 9.50975 14.9622 9.5 17 9.5ZM17 13.25C16.0054 13.25 15.0516 13.6451 14.3483 14.3483C13.6451 15.0516 13.25 16.0054 13.25 17C13.25 17.9946 13.6451 18.9484 14.3483 19.6517C15.0516 20.3549 16.0054 20.75 17 20.75C17.9946 20.75 18.9484 20.3549 19.6517 19.6517C20.3549 18.9484 20.75 17.9946 20.75 17C20.75 16.0054 20.3549 15.0516 19.6517 14.3483C18.9484 13.6451 17.9946 13.25 17 13.25ZM21.875 13.0625C21.875 12.8139 21.7762 12.5754 21.6004 12.3996C21.4246 12.2238 21.1861 12.125 20.9375 12.125C20.6889 12.125 20.4504 12.2238 20.2746 12.3996C20.0988 12.5754 20 12.8139 20 13.0625C20 13.3111 20.0988 13.5496 20.2746 13.7254C20.4504 13.9012 20.6889 14 20.9375 14C21.1861 14 21.4246 13.9012 21.6004 13.7254C21.7762 13.5496 21.875 13.3111 21.875 13.0625ZM17 14.75C17.5967 14.75 18.169 14.9871 18.591 15.409C19.0129 15.831 19.25 16.4033 19.25 17C19.25 17.5967 19.0129 18.169 18.591 18.591C18.169 19.0129 17.5967 19.25 17 19.25C16.4033 19.25 15.831 19.0129 15.409 18.591C14.9871 18.169 14.75 17.5967 14.75 17C14.75 16.4033 14.9871 15.831 15.409 15.409C15.831 14.9871 16.4033 14.75 17 14.75Z" fill="currentColor"/>
</g>
<defs>
<clipPath id="clip0_2628_7285">
<rect width="18" height="18" fill="white" transform="translate(8 8)"/>
</clipPath>
</defs>
</svg>
