<svg width="34" height="34" viewBox="0 0 34 34" fill="none" xmlns="http://www.w3.org/2000/svg">
<path d="M17.0374 34H16.9626C7.60953 34 0 26.3905 0 17.0374V16.9626C0 7.60953 7.60953 0 16.9626 0H17.0374C26.3905 0 34 7.60953 34 16.9626V17.0374C34 26.3905 26.3905 34 17.0374 34ZM16.9626 1.15086C8.24366 1.15086 1.15086 8.24366 1.15086 16.9626V17.0374C1.15086 25.7563 8.24366 32.8491 16.9626 32.8491H17.0374C25.7563 32.8491 32.8491 25.7563 32.8491 17.0374V16.9626C32.8491 8.24366 25.7563 1.15086 17.0374 1.15086H16.9626Z" fill="currentColor"/>
<path d="M10.7258 11.974C10.3767 11.65 10.2031 11.2489 10.2031 10.7717C10.2031 10.2946 10.3776 9.87585 10.7258 9.55092C11.0749 9.22692 11.5242 9.06445 12.0747 9.06445C12.6253 9.06445 13.057 9.22692 13.4051 9.55092C13.7542 9.87492 13.9278 10.2825 13.9278 10.7717C13.9278 11.261 13.7532 11.65 13.4051 11.974C13.056 12.298 12.6132 12.4605 12.0747 12.4605C11.5363 12.4605 11.0749 12.298 10.7258 11.974ZM13.6344 13.8326V23.7662H10.4956V13.8326H13.6344Z" fill="currentColor"/>
<path d="M24.0813 14.8142C24.7655 15.5569 25.1072 16.5763 25.1072 17.8742V23.5911H22.1261V18.2771C22.1261 17.6226 21.9563 17.1138 21.6174 16.7518C21.2785 16.3897 20.8218 16.2077 20.2499 16.2077C19.678 16.2077 19.2212 16.3888 18.8824 16.7518C18.5435 17.1138 18.3736 17.6226 18.3736 18.2771V23.5911H15.375V13.8051H18.3736V15.103C18.6772 14.6704 19.0866 14.3287 19.601 14.0771C20.1153 13.8255 20.6937 13.7002 21.337 13.7002C22.4826 13.7002 23.398 14.0715 24.0813 14.8142Z" fill="currentColor"/>
</svg>
