<svg width="20" height="20" viewBox="0 0 20 20" fill="none" xmlns="http://www.w3.org/2000/svg">
<path d="M8.44098 19.918C8.26379 19.918 8.08531 19.8995 7.90797 19.8618C5.70211 19.392 3.69613 18.1671 2.25957 16.4129C0.802461 14.6335 0 12.3848 0 10.0811C0 7.41356 1.03781 4.90469 2.92227 3.01668C4.80645 1.12898 7.31281 0.086445 9.97965 0.0810934L9.99984 0.0810547C15.4886 0.0810547 19.9727 4.54016 19.9998 10.0305C20.0001 10.0845 19.9999 10.1385 19.9994 10.1924C19.9854 11.4735 19.4709 12.6749 18.5507 13.5752C17.6354 14.4707 16.4258 14.9639 15.1448 14.9639H12.3438C11.5899 14.9639 10.9766 15.5773 10.9766 16.3311V17.3782C10.9766 18.148 10.6334 18.8674 10.035 19.3518C9.57734 19.7221 9.01637 19.918 8.44098 19.918ZM9.99984 2.03418H9.98355C5.55559 2.04305 1.95312 5.65289 1.95312 10.0811C1.95312 13.8565 4.62859 17.1664 8.31477 17.9514C8.55313 18.0023 8.72484 17.8994 8.80609 17.8336C8.88727 17.7679 9.02344 17.6213 9.02344 17.3781V16.3311C9.02344 14.5002 10.5129 13.0107 12.3438 13.0107H15.1448C16.7276 13.0107 18.0293 11.7368 18.0464 10.171V10.1709C18.0468 10.1275 18.047 10.0839 18.0468 10.0403C18.0249 5.6225 14.4163 2.03418 9.99984 2.03418Z" fill="white"/>
<path d="M4.6875 11.2529C4.04133 11.2529 3.51562 10.7272 3.51562 10.0811C3.51562 9.43488 4.04133 8.90918 4.6875 8.90918C5.33367 8.90918 5.85937 9.43488 5.85937 10.0811C5.85937 10.7272 5.33367 11.2529 4.6875 11.2529ZM10 5.94043C9.35383 5.94043 8.82812 5.41473 8.82812 4.76856C8.82812 4.12238 9.35383 3.59668 10 3.59668C10.6462 3.59668 11.1719 4.12238 11.1719 4.76856C11.1719 5.41473 10.6462 5.94043 10 5.94043ZM13.7559 7.49703C13.1097 7.49703 12.584 6.97133 12.584 6.32516C12.584 5.67898 13.1097 5.15328 13.7559 5.15328C14.4021 5.15328 14.9278 5.67898 14.9278 6.32516C14.9278 6.97133 14.4021 7.49703 13.7559 7.49703ZM6.2441 7.49703C5.59793 7.49703 5.07223 6.97133 5.07223 6.32516C5.07223 5.67898 5.59793 5.15328 6.2441 5.15328C6.89027 5.15328 7.41598 5.67898 7.41598 6.32516C7.41598 6.97133 6.89027 7.49703 6.2441 7.49703Z" fill="white"/>
</svg>
