<svg width="40" height="40" viewBox="0 0 40 40" fill="none" xmlns="http://www.w3.org/2000/svg">
<rect width="40" height="40" rx="20" fill="#FF9500"/>
<path d="M18.1292 31.902C17.9165 31.902 17.7024 31.8797 17.4896 31.8345C14.8425 31.2708 12.4354 29.801 10.7115 27.6959C8.96295 25.5606 8 22.8622 8 20.0977C8 16.8967 9.24537 13.886 11.5067 11.6204C13.7677 9.35517 16.7754 8.10412 19.9756 8.0977L19.9998 8.09766C26.5864 8.09766 31.9672 13.4486 31.9998 20.037C32.0001 20.1018 31.9999 20.1666 31.9993 20.2313C31.9825 21.7686 31.3651 23.2102 30.2609 24.2906C29.1624 25.3653 27.7109 25.9571 26.1737 25.9571H22.8125C21.9079 25.9571 21.1719 26.6931 21.1719 27.5977V28.8542C21.1719 29.778 20.76 30.6412 20.042 31.2225C19.4928 31.667 18.8196 31.902 18.1292 31.902ZM19.9998 10.4414H19.9803C14.6667 10.452 10.3438 14.7839 10.3438 20.0977C10.3438 24.6282 13.5543 28.6001 17.9777 29.5421C18.2638 29.6032 18.4698 29.4796 18.5673 29.4007C18.6647 29.3219 18.8281 29.146 18.8281 28.8541V27.5977C18.8281 25.4007 20.6155 23.6133 22.8125 23.6133H26.1737C28.0731 23.6133 29.6352 22.0846 29.6556 20.2056V20.2055C29.6562 20.1533 29.6564 20.1011 29.6561 20.0488C29.6299 14.7474 25.2995 10.4414 19.9998 10.4414Z" fill="white"/>
<path d="M13.625 21.5039C12.8496 21.5039 12.2188 20.8731 12.2188 20.0977C12.2188 19.3223 12.8496 18.6914 13.625 18.6914C14.4004 18.6914 15.0312 19.3223 15.0312 20.0977C15.0312 20.8731 14.4004 21.5039 13.625 21.5039ZM20 15.1289C19.2246 15.1289 18.5938 14.4981 18.5938 13.7227C18.5938 12.9473 19.2246 12.3164 20 12.3164C20.7754 12.3164 21.4062 12.9473 21.4062 13.7227C21.4062 14.4981 20.7754 15.1289 20 15.1289ZM24.5071 16.9968C23.7317 16.9968 23.1008 16.366 23.1008 15.5906C23.1008 14.8152 23.7317 14.1843 24.5071 14.1843C25.2825 14.1843 25.9133 14.8152 25.9133 15.5906C25.9133 16.366 25.2825 16.9968 24.5071 16.9968ZM15.4929 16.9968C14.7175 16.9968 14.0867 16.366 14.0867 15.5906C14.0867 14.8152 14.7175 14.1843 15.4929 14.1843C16.2683 14.1843 16.8992 14.8152 16.8992 15.5906C16.8992 16.366 16.2683 16.9968 15.4929 16.9968Z" fill="white"/>
</svg>
