<svg width="24" height="25" viewBox="0 0 24 25" fill="none" xmlns="http://www.w3.org/2000/svg">
<path d="M17 15.137V12.1315C17 11.952 17 11.8622 16.9727 11.783C16.9485 11.7129 16.9091 11.6491 16.8572 11.5962C16.7986 11.5363 16.7183 11.4962 16.5578 11.4159L12 9.13703M4 10.137V16.9436C4 17.3156 4 17.5015 4.05802 17.6643C4.10931 17.8083 4.1929 17.9385 4.30238 18.0451C4.42622 18.1657 4.59527 18.2432 4.93335 18.3981L11.3334 21.3315C11.5786 21.4439 11.7012 21.5001 11.8289 21.5223C11.9421 21.5419 12.0579 21.5419 12.1711 21.5223C12.2988 21.5001 12.4214 21.4439 12.6666 21.3315L19.0666 18.3981C19.4047 18.2432 19.5738 18.1657 19.6976 18.0451C19.8071 17.9385 19.8907 17.8083 19.942 17.6643C20 17.5015 20 17.3156 20 16.9436V10.137M2 9.13703L11.6422 4.31591C11.7734 4.25032 11.839 4.21753 11.9078 4.20462C11.9687 4.19319 12.0313 4.19319 12.0922 4.20462C12.161 4.21753 12.2266 4.25032 12.3578 4.31591L22 9.13703L12.3578 13.9581C12.2266 14.0237 12.161 14.0565 12.0922 14.0694C12.0313 14.0809 11.9687 14.0809 11.9078 14.0694C11.839 14.0565 11.7734 14.0237 11.6422 13.9581L2 9.13703Z" stroke="#0D0C18" stroke-width="2" stroke-linecap="round" stroke-linejoin="round"/>
</svg>
