<svg width="24" height="24" viewBox="0 0 24 24" fill="none" xmlns="http://www.w3.org/2000/svg">
<path d="M23.7403 10.8943C22.6819 8.74731 21.6235 6.60107 20.5651 4.45558C20.361 4.04508 20.0526 3.93621 19.6421 4.13579L17.136 5.36503C16.6824 5.59182 16.5758 5.87759 16.7935 6.34252L16.8616 6.4854L19.7918 12.4615C18.3335 13.8495 16.9795 14.8111 15.5416 15.4801C14.512 15.9587 13.48 16.4667 12.4821 16.9611C11.9219 17.2355 11.364 17.5122 10.8016 17.7844C10.77 17.8044 10.7345 17.8176 10.6975 17.8231C10.6604 17.8286 10.6227 17.8262 10.5866 17.8162C10.5506 17.8062 10.517 17.7887 10.4881 17.7649C10.4592 17.7411 10.4356 17.7115 10.4189 17.678C10.4022 17.6446 10.3926 17.6079 10.3909 17.5706C10.3892 17.5332 10.3954 17.4958 10.409 17.461C10.4226 17.4261 10.4434 17.3945 10.47 17.3682C10.4966 17.3418 10.5284 17.3214 10.5634 17.3081C10.8537 17.1584 11.1463 17.0155 11.4389 16.8727L11.6906 16.7479L12.1782 16.5098C12.5774 16.317 12.9902 16.1152 13.3939 15.9065C13.4915 15.8481 13.5751 15.7688 13.6386 15.6743C13.7022 15.5798 13.744 15.4725 13.7613 15.3599C13.7625 15.2347 13.7253 15.1122 13.6548 15.0088C13.5842 14.9054 13.4836 14.8261 13.3666 14.7816C13.2768 14.7552 13.1825 14.7476 13.0897 14.7593C12.9968 14.771 12.9073 14.8018 12.8269 14.8496C12.1918 15.1535 11.5591 15.4642 10.9263 15.775L9.89212 16.2807L8.69237 16.8681C8.64273 16.9004 8.5841 16.916 8.52498 16.9128C8.46586 16.9095 8.40931 16.8875 8.36352 16.85C8.32274 16.8228 8.29186 16.7831 8.2755 16.7369C8.25915 16.6907 8.2582 16.6405 8.2728 16.5937C8.28641 16.503 8.33403 16.4327 8.53588 16.3329C9.42719 15.902 10.3185 15.4665 11.2075 15.0333L11.7065 14.7884C11.9923 14.6501 12.2757 14.5117 12.5592 14.3688C12.704 14.3048 12.8176 14.1862 12.8751 14.0387C12.9326 13.8912 12.9293 13.727 12.8661 13.5819C12.8028 13.4368 12.6847 13.3227 12.5375 13.2644C12.3904 13.2062 12.2261 13.2086 12.0807 13.2711C12.0214 13.2926 11.9638 13.3184 11.9083 13.3482L10.9649 13.8018C9.79309 14.387 8.6198 14.9638 7.44499 15.5323C7.37439 15.5671 7.29691 15.5857 7.2182 15.5867C7.15977 15.5816 7.105 15.5561 7.06352 15.5146C7.02205 15.4731 6.99651 15.4184 6.9914 15.3599C6.98258 15.3026 6.99263 15.2439 7.02004 15.1928C7.04744 15.1417 7.09072 15.1008 7.14336 15.0764C7.56293 14.8723 7.99157 14.6637 8.42248 14.4527L11.2869 13.0489C11.3124 13.0377 11.3367 13.024 11.3595 13.008C11.4424 12.9665 11.516 12.9085 11.5756 12.8375C11.6353 12.7665 11.6798 12.6841 11.7065 12.5953C11.7256 12.5232 11.7297 12.4479 11.7183 12.3741C11.707 12.3003 11.6806 12.2297 11.6407 12.1666C11.6016 12.0958 11.5487 12.0336 11.4851 11.9836C11.4214 11.9337 11.3484 11.897 11.2703 11.8759C11.1923 11.8547 11.1107 11.8495 11.0306 11.8605C10.9505 11.8715 10.8733 11.8984 10.8038 11.9398L10.2232 12.2256L7.19098 13.7134C7.15746 13.7377 7.11911 13.7546 7.07852 13.7629C7.03793 13.7712 6.99603 13.7707 6.95564 13.7615C6.91524 13.7523 6.8773 13.7345 6.84435 13.7094C6.8114 13.6843 6.78421 13.6524 6.76461 13.6159C6.74812 13.5886 6.73758 13.5581 6.73367 13.5264C6.72977 13.4948 6.73258 13.4627 6.74193 13.4322C6.78303 13.3401 6.85763 13.2671 6.95058 13.228C7.29077 13.0557 7.63097 12.8878 7.97796 12.72L8.37486 12.525L8.52454 12.4547C8.65263 12.398 8.77755 12.3344 8.89876 12.2642C9.02538 12.1878 9.11915 12.0672 9.16185 11.9256C9.20455 11.784 9.19316 11.6317 9.12987 11.498C9.06659 11.3644 8.95593 11.259 8.81935 11.2024C8.68278 11.1457 8.53003 11.1418 8.39073 11.1914C8.33708 11.2096 8.28479 11.2316 8.23424 11.2572L6.47658 12.1167C6.22788 12.2228 6.01099 12.3916 5.84719 12.6067C5.68339 12.8218 5.57828 13.0758 5.54218 13.3437C5.52415 13.5672 5.55544 13.7919 5.63382 14.002C5.7122 14.212 5.83576 14.4023 5.99577 14.5593C5.86461 14.7696 5.79024 15.0104 5.7799 15.258C5.76957 15.5057 5.82363 15.7518 5.9368 15.9723C6.04004 16.1933 6.19874 16.3838 6.39746 16.5253C6.59618 16.6668 6.82815 16.7544 7.07078 16.7797C7.0928 16.9946 7.16144 17.2021 7.2719 17.3878C7.38236 17.5734 7.53198 17.7328 7.71035 17.8547C7.91948 17.9915 8.15938 18.0742 8.40842 18.0951C8.65746 18.1161 8.90781 18.0748 9.13689 17.9749L9.26617 17.9204C9.29468 18.0285 9.33579 18.1327 9.38864 18.2312C9.50553 18.4628 9.68451 18.6573 9.90558 18.7931C10.1267 18.9289 10.3811 19.0005 10.6405 19C10.9238 18.9957 11.2023 18.9266 11.4547 18.7981L12.8155 18.1178C13.8157 17.6233 14.8567 17.1153 15.8727 16.6322C17.4733 15.8969 18.9409 14.9014 20.2159 13.6862L20.2363 13.6658C20.5265 13.3458 20.8713 13.0801 21.2546 12.881C21.774 12.6542 22.2865 12.3957 22.7855 12.1485L23.3933 11.8469C23.4852 11.8112 23.5691 11.7575 23.64 11.689C23.7109 11.6204 23.7673 11.5384 23.8061 11.4477C23.833 11.3558 23.841 11.2594 23.8297 11.1643C23.8184 11.0692 23.788 10.9773 23.7403 10.8943ZM22.4294 10.9964L20.801 11.7924L18.0795 6.24046L19.7101 5.44214L22.4294 10.9964ZM7.35654 6.41282L7.37696 6.35386C7.72307 6.45969 8.08706 6.49416 8.44688 6.45518C8.80671 6.4162 9.15487 6.30457 9.47028 6.12706C9.64183 6.03955 9.83 5.98944 10.0224 5.98006C10.2147 5.97068 10.4069 6.00223 10.5861 6.07263C11.1554 6.27221 11.7201 6.46726 12.2962 6.6623L15.5529 7.79628C15.5193 7.91633 15.4496 8.02319 15.3534 8.10245C15.2886 8.14929 15.215 8.18231 15.1369 8.19948C15.0589 8.21665 14.9782 8.21759 14.8998 8.20224C14.7014 8.17 14.5069 8.11757 14.3192 8.04576C13.8928 7.90514 13.4687 7.75999 13.0423 7.61484L12.278 7.34949C11.8244 7.19981 11.5409 7.33362 11.3708 7.77814L11.3595 7.80989C11.3028 7.9573 11.2484 8.09565 11.1849 8.22492C10.6405 9.32488 9.75605 9.78074 8.55403 9.5857C8.42022 9.56302 8.28187 9.52673 8.13899 9.48818L7.82148 9.4088C7.67676 9.38019 7.52658 9.40622 7.39994 9.48187C7.2733 9.55751 7.17918 9.6774 7.13576 9.81837C7.09234 9.95935 7.10269 10.1114 7.16483 10.2452C7.22697 10.379 7.33648 10.485 7.47221 10.5428C7.54581 10.5728 7.62164 10.5971 7.69901 10.6154L7.76251 10.6312C9.75151 11.2277 11.4525 10.477 12.3234 8.62182L12.6046 8.71707C13.0582 8.87583 13.5118 9.03005 13.9654 9.182C14.4411 9.38345 14.9655 9.44101 15.4736 9.34756C16.2878 9.14572 16.95 8.18183 16.8616 7.32908C16.8432 7.19866 16.7853 7.07699 16.6957 6.98047C16.6061 6.88396 16.4891 6.81724 16.3603 6.78931L14.9996 6.32211C13.7159 5.88212 12.3891 5.42626 11.0873 4.96133C10.7169 4.81824 10.3198 4.75731 9.92355 4.78277C9.52726 4.80822 9.14124 4.91944 8.79216 5.10875C8.61838 5.19929 8.42708 5.25123 8.23137 5.26102C8.03565 5.2708 7.84013 5.2382 7.65818 5.16545C6.88254 4.89329 6.10236 4.62341 5.32445 4.35352L4.55335 4.08817C4.45052 4.03706 4.33835 4.00749 4.2237 4.00125C4.10905 3.99501 3.99433 4.01224 3.88657 4.05188C3.79042 4.11181 3.7076 4.19084 3.64323 4.28408C3.57886 4.37732 3.53432 4.48277 3.51235 4.59392L1.23759 11.2368C1.06296 11.7471 1.19904 12.026 1.70706 12.2007L4.30614 13.092C4.40868 13.1297 4.5167 13.1504 4.62592 13.1532C4.71499 13.1534 4.80283 13.1324 4.8822 13.092C5.05189 12.9921 5.17505 12.8289 5.22466 12.6384L7.10027 7.14991C7.18645 6.90497 7.27036 6.65776 7.35654 6.41282ZM6.24751 5.94563L4.24037 11.7924L2.52579 11.2028L4.53067 5.35596L6.24751 5.94563Z" fill="black"/>
</svg>
