<svg width="33" height="32" viewBox="0 0 33 32" fill="none" xmlns="http://www.w3.org/2000/svg">
<rect x="0.470703" width="32" height="32" rx="16" fill="#1E1E1C"/>
<g clip-path="url(#clip0_466_10934)">
<path d="M16.6473 8.04079C19.2406 8.04079 19.5477 8.05216 20.5676 8.09766C21.5154 8.13936 22.0272 8.2986 22.3684 8.4313C22.8196 8.6057 23.1457 8.81801 23.4831 9.15544C23.8243 9.49667 24.0329 9.81893 24.2073 10.2701C24.34 10.6113 24.4992 11.127 24.5409 12.071C24.5864 13.0947 24.5978 13.4018 24.5978 15.9913C24.5978 18.5846 24.5864 18.8917 24.5409 19.9115C24.4992 20.8594 24.34 21.3712 24.2073 21.7124C24.0329 22.1636 23.8205 22.4897 23.4831 22.8271C23.1419 23.1683 22.8196 23.3768 22.3684 23.5512C22.0272 23.6839 21.5116 23.8432 20.5676 23.8849C19.5439 23.9304 19.2368 23.9417 16.6473 23.9417C14.054 23.9417 13.7469 23.9304 12.727 23.8849C11.7792 23.8432 11.2673 23.6839 10.9261 23.5512C10.475 23.3768 10.1489 23.1645 9.81147 22.8271C9.47024 22.4859 9.26172 22.1636 9.08732 21.7124C8.95462 21.3712 8.79538 20.8556 8.75368 19.9115C8.70818 18.8879 8.69681 18.5808 8.69681 15.9913C8.69681 13.398 8.70818 13.0909 8.75368 12.071C8.79538 11.1232 8.95462 10.6113 9.08732 10.2701C9.26172 9.81893 9.47403 9.49288 9.81147 9.15544C10.1527 8.81422 10.475 8.6057 10.9261 8.4313C11.2673 8.2986 11.783 8.13936 12.727 8.09766C13.7469 8.05216 14.054 8.04079 16.6473 8.04079ZM16.6473 6.29297C14.0123 6.29297 13.6824 6.30434 12.6474 6.34984C11.6162 6.39534 10.9072 6.56216 10.293 6.80101C9.65223 7.05124 9.11006 7.38109 8.57169 7.92325C8.02953 8.46163 7.69968 9.00379 7.44945 9.64074C7.21059 10.2587 7.04377 10.9639 6.99828 11.9952C6.95278 13.034 6.94141 13.3639 6.94141 15.9988C6.94141 18.6338 6.95278 18.9637 6.99828 19.9987C7.04377 21.03 7.21059 21.739 7.44945 22.3532C7.69968 22.9939 8.02953 23.5361 8.57169 24.0744C9.11006 24.6128 9.65223 24.9465 10.2892 25.1929C10.9072 25.4317 11.6124 25.5986 12.6436 25.6441C13.6787 25.6896 14.0085 25.7009 16.6435 25.7009C19.2785 25.7009 19.6083 25.6896 20.6434 25.6441C21.6746 25.5986 22.3836 25.4317 22.9978 25.1929C23.6348 24.9465 24.1769 24.6128 24.7153 24.0744C25.2537 23.5361 25.5873 22.9939 25.8337 22.357C26.0726 21.739 26.2394 21.0338 26.2849 20.0025C26.3304 18.9675 26.3418 18.6376 26.3418 16.0026C26.3418 13.3676 26.3304 13.0378 26.2849 12.0028C26.2394 10.9715 26.0726 10.2625 25.8337 9.64832C25.5949 9.00379 25.265 8.46163 24.7229 7.92325C24.1845 7.38488 23.6423 7.05124 23.0054 6.8048C22.3874 6.56595 21.6822 6.39913 20.651 6.35363C19.6121 6.30434 19.2823 6.29297 16.6473 6.29297Z" fill="white"/>
<path d="M16.6477 11.0117C13.8952 11.0117 11.6621 13.2448 11.6621 15.9974C11.6621 18.7499 13.8952 20.983 16.6477 20.983C19.4003 20.983 21.6334 18.7499 21.6334 15.9974C21.6334 13.2448 19.4003 11.0117 16.6477 11.0117ZM16.6477 19.2314C14.862 19.2314 13.4137 17.7831 13.4137 15.9974C13.4137 14.2116 14.862 12.7633 16.6477 12.7633C18.4335 12.7633 19.8818 14.2116 19.8818 15.9974C19.8818 17.7831 18.4335 19.2314 16.6477 19.2314Z" fill="white"/>
<path d="M22.9939 10.8163C22.9939 11.4608 22.4707 11.9802 21.83 11.9802C21.1854 11.9802 20.666 11.457 20.666 10.8163C20.666 10.1718 21.1892 9.65234 21.83 9.65234C22.4707 9.65234 22.9939 10.1756 22.9939 10.8163Z" fill="white"/>
</g>
<defs>
<clipPath id="clip0_466_10934">
<rect width="19.4118" height="19.4118" fill="white" transform="translate(6.94141 6.29297)"/>
</clipPath>
</defs>
</svg>
