<svg width="25" height="24" viewBox="0 0 25 24" fill="none" xmlns="http://www.w3.org/2000/svg">
<path d="M19.9123 15.0407V13.2897C19.9123 12.6912 19.6745 12.117 19.2513 11.6936C18.8279 11.2703 18.2537 11.0326 17.6552 11.0326H13.4633V8.95929C14.5708 8.6453 15.4573 7.81333 15.8405 6.72783C16.2238 5.64234 16.0564 4.43834 15.3916 3.4984C14.7267 2.5587 13.6471 2 12.4959 2C11.3448 2 10.2652 2.5587 9.60028 3.4984C8.9354 4.43834 8.76808 5.64234 9.15133 6.72783C9.53459 7.81333 10.421 8.6453 11.5285 8.95929V11.0326H7.33664C6.7381 11.0326 6.16391 11.2704 5.74059 11.6936C5.31728 12.117 5.07957 12.6912 5.07957 13.2897V15.0407C3.97207 15.3547 3.08563 16.1867 2.70238 17.2722C2.31913 18.3577 2.48645 19.5617 3.15132 20.5016C3.8162 21.4413 4.89582 22 6.04696 22C7.1981 22 8.27772 21.4413 8.9426 20.5016C9.60748 19.5617 9.7748 18.3577 9.39155 17.2722C9.00829 16.1867 8.12185 15.3547 7.01436 15.0407V13.2897C7.01436 13.1118 7.15876 12.9674 7.33667 12.9674H17.655C17.7405 12.9674 17.8223 13.0014 17.8828 13.0619C17.9434 13.1224 17.9773 13.2042 17.9773 13.2897V15.0407C16.8698 15.3547 15.9834 16.1867 15.6001 17.2722C15.2169 18.3577 15.3842 19.5617 16.0491 20.5016C16.7139 21.4413 17.7936 22 18.9447 22C20.0958 22 21.1755 21.4413 21.8403 20.5016C22.5052 19.5617 22.6726 18.3577 22.2893 17.2722C21.906 16.1867 21.0196 15.3547 19.9121 15.0407L19.9123 15.0407ZM10.8837 5.55096C10.8837 5.12338 11.0535 4.71334 11.3558 4.41082C11.6584 4.10852 12.0684 3.93871 12.496 3.93871C12.9236 3.93871 13.3336 4.10852 13.6361 4.41082C13.9384 4.71334 14.1082 5.12337 14.1082 5.55096C14.1082 5.97855 13.9384 6.38857 13.6361 6.6911C13.3336 6.99339 12.9236 7.16321 12.496 7.16321C12.0684 7.16321 11.6584 6.99339 11.3558 6.6911C11.0535 6.38858 10.8837 5.97855 10.8837 5.55096ZM7.65925 18.4489C7.65925 18.8764 7.48944 19.2865 7.18714 19.589C6.88462 19.8913 6.47459 20.0611 6.047 20.0611C5.61941 20.0611 5.20939 19.8913 4.90686 19.589C4.60457 19.2865 4.43475 18.8765 4.43475 18.4489C4.43475 18.0213 4.60457 17.6113 4.90686 17.3087C5.20938 17.0064 5.61941 16.8366 6.047 16.8366C6.47459 16.8366 6.88462 17.0064 7.18714 17.3087C7.48944 17.6112 7.65925 18.0213 7.65925 18.4489ZM18.9449 20.0611C18.5173 20.0611 18.1073 19.8913 17.8048 19.589C17.5025 19.2865 17.3327 18.8764 17.3327 18.4489C17.3327 18.0213 17.5025 17.6112 17.8048 17.3087C18.1073 17.0064 18.5173 16.8366 18.9449 16.8366C19.3725 16.8366 19.7825 17.0064 20.0851 17.3087C20.3874 17.6112 20.5572 18.0213 20.5572 18.4489C20.5572 18.8764 20.3874 19.2865 20.0851 19.589C19.7825 19.8913 19.3725 20.0611 18.9449 20.0611Z" fill="white"/>
</svg>
