<svg width="42" height="54" viewBox="0 0 42 54" fill="none" xmlns="http://www.w3.org/2000/svg">
<g opacity="0.3">
<path opacity="0.3" d="M34.916 12.312C33.5493 12.3107 32.2389 11.7671 31.2725 10.8007C30.3061 9.83428 29.7626 8.5239 29.7613 7.15717V0H6.72721C4.94304 0 3.23196 0.708779 1.97036 1.97038C0.708763 3.23198 0 4.94303 0 6.7272V47.2805C0.00264948 49.0629 0.712575 50.7715 1.97389 52.0309C3.2352 53.2904 4.94478 53.9978 6.72721 53.9978H34.3786C36.161 53.9978 37.8706 53.2904 39.1319 52.0309C40.3932 50.7715 41.1031 49.0629 41.1058 47.2805V12.312H34.916Z" fill="#07516A"/>
</g>
<path d="M41.1062 12.312H34.9165C33.5498 12.3107 32.2394 11.7671 31.273 10.8007C30.3066 9.83427 29.763 8.5239 29.7617 7.15717V0L41.1062 12.312Z" fill="#07516A"/>
<path d="M32.6487 37.7084H6.8398C6.59117 37.7084 6.35272 37.6096 6.17691 37.4338C6.00111 37.258 5.90234 37.0195 5.90234 36.7709C5.90301 36.5227 6.00206 36.2849 6.1778 36.1096C6.35354 35.9343 6.59161 35.8359 6.8398 35.8359H32.6487C32.8967 35.8359 33.1345 35.9344 33.3098 36.1097C33.4852 36.2851 33.5837 36.5229 33.5837 36.7709C33.584 36.8939 33.5601 37.0157 33.5132 37.1295C33.4664 37.2432 33.3976 37.3465 33.3107 37.4336C33.2239 37.5207 33.1207 37.5898 33.0071 37.6369C32.8935 37.6841 32.7717 37.7084 32.6487 37.7084Z" fill="#07516A"/>
<path d="M32.6487 27.1488H6.8398C6.59161 27.1488 6.35354 27.0503 6.1778 26.8751C6.00206 26.6998 5.90301 26.462 5.90234 26.2138C5.90234 25.9652 6.00111 25.7267 6.17691 25.5509C6.35272 25.3751 6.59117 25.2764 6.8398 25.2764H32.6487C32.7717 25.2764 32.8935 25.3006 33.0071 25.3478C33.1207 25.3949 33.2239 25.464 33.3107 25.5511C33.3976 25.6382 33.4664 25.7415 33.5132 25.8553C33.5601 25.969 33.584 26.0908 33.5837 26.2138C33.5837 26.4618 33.4852 26.6996 33.3098 26.8749C33.1345 27.0503 32.8967 27.1488 32.6487 27.1488Z" fill="#07516A"/>
<path d="M32.6487 32.4286H6.8398C6.59117 32.4286 6.35272 32.3298 6.17691 32.154C6.00111 31.9782 5.90234 31.7397 5.90234 31.4911C5.90301 31.2429 6.00206 31.0051 6.1778 30.8298C6.35354 30.6546 6.59161 30.5562 6.8398 30.5562H32.6487C32.8967 30.5562 33.1345 30.6547 33.3098 30.83C33.4852 31.0053 33.5837 31.2431 33.5837 31.4911C33.584 31.6141 33.5601 31.736 33.5132 31.8497C33.4664 31.9634 33.3976 32.0668 33.3107 32.1539C33.2239 32.2409 33.1207 32.31 33.0071 32.3572C32.8935 32.4043 32.7717 32.4286 32.6487 32.4286Z" fill="#07516A"/>
<path d="M22.4692 21.8695H6.8398C6.59161 21.8695 6.35354 21.7711 6.1778 21.5958C6.00206 21.4206 5.90301 21.1827 5.90234 20.9345C5.90234 20.6859 6.00111 20.4475 6.17691 20.2717C6.35272 20.0958 6.59117 19.9971 6.8398 19.9971H22.4692C22.7174 19.9977 22.9552 20.0968 23.1304 20.2725C23.3057 20.4482 23.4041 20.6863 23.4041 20.9345C23.4035 21.1823 23.3047 21.4197 23.1295 21.5949C22.9544 21.7701 22.7169 21.8688 22.4692 21.8695Z" fill="#07516A"/>
<path d="M22.4692 16.5892H6.8398C6.59161 16.5892 6.35354 16.4908 6.1778 16.3155C6.00206 16.1402 5.90301 15.9025 5.90234 15.6543C5.90234 15.4056 6.00111 15.1671 6.17691 14.9913C6.35272 14.8155 6.59117 14.7168 6.8398 14.7168H22.4692C22.7174 14.7175 22.9552 14.8165 23.1304 14.9922C23.3057 15.168 23.4041 15.4061 23.4041 15.6543C23.4035 15.902 23.3047 16.1394 23.1295 16.3146C22.9544 16.4898 22.7169 16.5886 22.4692 16.5892Z" fill="#07516A"/>
<path d="M32.1898 14.7168H27.7699C26.9995 14.7168 26.375 15.3413 26.375 16.1117V20.5316C26.375 21.302 26.9995 21.9265 27.7699 21.9265H32.1898C32.9602 21.9265 33.5847 21.302 33.5847 20.5316V16.1117C33.5847 15.3413 32.9602 14.7168 32.1898 14.7168Z" fill="#07516A"/>
</svg>
