<svg width="20" height="20" viewBox="0 0 20 20" fill="none" xmlns="http://www.w3.org/2000/svg">
<path d="M17.0625 6.50364C17.0711 6.65788 17.0711 6.81212 17.0711 6.95781C17.0689 7.9067 16.9303 8.85035 16.6597 9.75983C16.0894 11.8557 14.8372 13.702 13.1008 15.007C11.3645 16.312 9.24285 17.0014 7.07102 16.9664C5.15915 16.9685 3.28741 16.418 1.68115 15.3811C1.95974 15.4156 2.24019 15.4327 2.5209 15.4325C4.10293 15.434 5.63937 14.9028 6.88257 13.9244C6.15033 13.9106 5.44062 13.6688 4.85233 13.2326C4.26404 12.7963 3.82649 12.1875 3.60064 11.4908C3.81866 11.5281 4.03929 11.5482 4.26047 11.5508C4.57629 11.552 4.8907 11.5087 5.19445 11.4222C4.44243 11.2733 3.76011 10.8816 3.25233 10.3073C2.74456 9.73293 2.43942 9.00774 2.38382 8.24314C2.36957 8.15535 2.36382 8.06639 2.36666 7.9775V7.93465C2.85502 8.20648 3.40178 8.3564 3.96048 8.37168C3.4796 8.05114 3.08553 7.61656 2.81341 7.10672C2.5413 6.59687 2.39961 6.0276 2.40097 5.44968C2.40035 4.82739 2.56285 4.21581 2.87225 3.67589C3.75476 4.76327 4.85639 5.6526 6.10542 6.28597C7.35445 6.91934 8.72286 7.28256 10.1216 7.35197C9.94459 6.59796 10.0216 5.8066 10.3405 5.10083C10.6595 4.39506 11.2026 3.81438 11.8855 3.44899C12.5684 3.08361 13.3529 2.95398 14.117 3.08023C14.8812 3.20648 15.5823 3.58155 16.1113 4.14718C16.9003 3.99147 17.6568 3.70163 18.3478 3.29028C18.3776 3.88685 18.2781 4.48281 18.0563 5.03741C17.8344 5.592 17.4954 6.09214 17.0625 6.50364Z" fill="white"/>
</svg>
