<svg width="121" height="60" viewBox="0 0 121 60" fill="none" xmlns="http://www.w3.org/2000/svg">
<g clip-path="url(#clip0_687_4937)">
<path d="M25.7459 26.6402H6.45386C6.39424 27.2737 6.34953 27.8351 6.31972 28.3294C6.28991 28.8238 6.275 29.2684 6.275 29.6634C6.275 33.258 7.17427 36.1819 8.97032 38.435C10.7689 40.6881 13.099 41.8135 15.9632 41.8135C17.5432 41.8135 18.9268 41.5129 20.1118 40.9092C21.2967 40.3081 22.5214 39.2746 23.7859 37.814L24.8814 38.9691C23.6567 40.708 22.1637 42.0122 20.4074 42.8816C18.6486 43.7511 16.6042 44.1858 14.274 44.1858C10.1851 44.1858 6.80661 42.8866 4.13862 40.2882C1.4756 37.6873 0.141602 34.433 0.141602 30.5205C0.141602 26.4911 1.53025 23.0332 4.30506 20.1491C7.07987 17.265 10.4633 15.8217 14.4554 15.8217C17.7543 15.8217 20.4596 16.7805 22.5736 18.6958C24.6876 20.6111 25.7434 23.0729 25.7434 26.0738V26.6377L25.7459 26.6402ZM20.1168 24.8615C20.1565 24.5063 20.1963 24.2007 20.236 23.9424C20.2757 23.6865 20.2956 23.5275 20.2956 23.4679C20.2956 21.5327 19.7466 19.9851 18.6511 18.83C17.5556 17.6748 16.1173 17.096 14.3386 17.096C12.3438 17.096 10.6645 17.7966 9.30071 19.2001C7.93691 20.6037 7.1072 22.4892 6.81158 24.859H20.1168V24.8615Z" fill="white"/>
<path d="M39.5229 15.29V38.907C39.5229 40.0149 39.8186 40.7949 40.4123 41.247C41.006 41.7017 42.0816 41.9675 43.6417 42.047V43.3213C42.3574 43.222 41.1575 43.1474 40.0421 43.1002C38.9267 43.0506 37.8635 43.0257 36.8574 43.0257C35.8489 43.0257 34.7981 43.0506 33.7001 43.1002C32.6045 43.1499 31.4345 43.2244 30.1899 43.3213V42.047C31.6506 41.9873 32.684 41.7315 33.2852 41.2769C33.8864 40.8223 34.1894 40.072 34.1894 39.0237V38.045V22.8742C34.1894 21.0558 33.9609 19.9255 33.5088 19.4808C33.0542 19.0361 32.1649 18.8151 30.8408 18.8151H30.3663V17.6003C31.6506 17.4811 33.0517 17.2302 34.5745 16.8451C36.0948 16.4601 37.7443 15.9409 39.5229 15.29ZM36.2339 0C37.1034 0 37.8486 0.305552 38.4721 0.919141C39.0957 1.53273 39.4062 2.27301 39.4062 3.14247C39.4062 4.01192 39.1006 4.74724 38.487 5.35089C37.8735 5.95454 37.1232 6.25512 36.2339 6.25512C35.3843 6.25512 34.659 5.95454 34.0553 5.35089C33.4516 4.74972 33.1511 4.01192 33.1511 3.14247C33.1511 2.25314 33.4467 1.50789 34.0404 0.904236C34.6341 0.300584 35.3645 0 36.2339 0Z" fill="white"/>
<path d="M56.0877 34.4627C53.9936 33.7124 52.359 32.5623 51.184 31.0097C50.009 29.4595 49.4202 27.6759 49.4202 25.6613C49.4202 22.8368 50.4909 20.4892 52.6347 18.6236C54.7786 16.758 57.4888 15.824 60.7704 15.824C62.2708 15.824 63.6992 16.06 65.0531 16.5344C66.4069 17.0089 67.6267 17.7095 68.7122 18.6385C70.1729 17.6126 71.3256 16.9145 72.1652 16.5494C73.0049 16.1842 73.8197 16.0004 74.6096 16.0004C75.735 16.0004 76.6342 16.2488 77.305 16.7406C77.9757 17.235 78.3135 17.9057 78.3135 18.7553C78.3135 19.2894 78.1297 19.744 77.7645 20.1191C77.3994 20.4942 76.9497 20.683 76.4156 20.683C75.8418 20.683 75.176 20.3079 74.4159 19.5577C73.6557 18.8075 72.9676 18.4323 72.3565 18.4323C72.0211 18.4323 71.6361 18.5267 71.2014 18.7131C70.7666 18.9019 70.2624 19.1925 69.691 19.5875C70.5008 20.6755 71.0796 21.7065 71.4249 22.6827C71.7702 23.6615 71.9441 24.7123 71.9441 25.8376C71.9441 28.7814 71.0498 31.0047 69.2637 32.5051C67.4751 34.0056 64.6655 34.9048 60.8325 35.2005H60.6536C55.7946 35.5358 53.3626 36.4649 53.3626 37.9852C53.3626 39.2496 55.9113 39.9104 61.0088 39.97H61.2448C66.2231 40.0495 69.7829 40.8296 71.9268 42.3101C74.0706 43.7907 75.1413 46.173 75.1413 49.4521C75.1413 52.6914 73.9116 55.2501 71.4523 57.1257C68.993 59.0012 65.6195 59.9402 61.3318 59.9402C57.5583 59.9402 54.4482 59.1403 51.9988 57.5405C49.5494 55.9407 48.3247 53.936 48.3247 51.5239C48.3247 50.1402 48.7743 48.9404 49.6736 47.9243C50.5729 46.9058 51.6237 46.3991 52.8285 46.3991C53.303 46.3991 53.7427 46.4935 54.1476 46.6798C54.5525 46.8686 54.9425 47.1592 55.3176 47.5542C54.3289 47.8101 53.5737 48.3342 53.0521 49.1242C52.5279 49.9142 52.2671 50.9327 52.2671 52.1772C52.2671 54.0528 53.1117 55.5656 54.8009 56.7108C56.4902 57.856 58.7284 58.4299 61.5131 58.4299C64.6134 58.4299 66.9957 57.8212 68.6551 56.6065C70.3145 55.3917 71.1442 53.6479 71.1442 51.3773C71.1442 49.2633 70.4338 47.7678 69.0103 46.8884C67.5869 46.009 64.832 45.5495 60.743 45.5097C57.1485 45.47 54.5351 45.0005 52.9055 44.1012C51.2759 43.2019 50.4611 41.8058 50.4611 39.9079C50.4611 38.5044 50.9356 37.3443 51.8845 36.4251C52.8335 35.506 54.2345 34.8502 56.0927 34.4552M60.4201 17.0313C58.6414 17.0313 57.2155 17.8113 56.1374 19.3714C55.0593 20.9314 54.5227 23.0256 54.5227 25.6538C54.5227 28.2821 55.0618 30.3365 56.1374 31.817C57.213 33.2976 58.7011 34.0403 60.5965 34.0403C62.5515 34.0403 64.0644 33.2752 65.1301 31.745C66.1958 30.2147 66.7299 28.0461 66.7299 25.2414C66.7299 22.7324 66.156 20.7377 65.0108 19.2546C63.8656 17.774 62.3329 17.0313 60.4176 17.0313" fill="white"/>
<path d="M114.635 23.1971H101.165C99.6501 23.1971 98.4204 24.4268 98.4204 25.9421V39.4113C98.4204 40.9266 99.6501 42.1563 101.165 42.1563H114.635C116.15 42.1563 117.38 40.9266 117.38 39.4113V25.9421C117.38 24.4268 116.15 23.1971 114.635 23.1971Z" fill="#E2348A"/>
<path d="M106.245 33.233H96.1694C94.9472 33.233 93.9585 34.2242 93.9585 35.4439V45.5172C93.9585 46.7394 94.9497 47.7306 96.1719 47.7306H106.245C107.467 47.7306 108.456 46.7394 108.456 45.5197V35.4439C108.456 34.2217 107.465 33.233 106.245 33.233Z" fill="#1A99D6"/>
<path d="M95.2255 15.3895H84.8864C83.7362 15.3895 82.8047 16.3211 82.8047 17.4713V27.8029C82.8047 28.9555 83.7387 29.8896 84.8889 29.8896H95.223C96.3707 29.8896 97.3023 28.958 97.3023 27.8103V17.4713C97.3023 16.3236 96.3707 15.392 95.223 15.392" fill="#F0E532"/>
<path d="M118.875 47.7333H110.314C109.288 47.7333 108.458 48.563 108.458 49.5889V58.1469C108.458 59.1704 109.288 60.0026 110.314 60.0026H118.875C119.898 60.0026 120.728 59.1728 120.728 58.1494V49.5889C120.728 48.5655 119.898 47.7358 118.875 47.7358" fill="white"/>
<path d="M1.24953 50.7513C1.06322 50.7513 0.891815 50.719 0.740281 50.6519C0.588747 50.5873 0.457086 50.4954 0.345299 50.3811C0.233511 50.2668 0.14905 50.1352 0.0894299 49.9886C0.02981 49.8396 0 49.6831 0 49.5141C0 49.2881 0.0521674 49.0819 0.156502 48.8956C0.260837 48.7093 0.407403 48.5577 0.593715 48.4435C0.780027 48.3292 1.00112 48.2721 1.25202 48.2721C1.50292 48.2721 1.72153 48.3292 1.90535 48.4435C2.08918 48.5577 2.23078 48.7068 2.33263 48.8931C2.43448 49.0794 2.48416 49.2781 2.48416 49.4918C2.48416 49.529 2.48416 49.5638 2.4792 49.5936C2.47671 49.6259 2.47423 49.6533 2.46926 49.6731H0.539064C0.549 49.8122 0.586263 49.934 0.655819 50.0383C0.725376 50.1426 0.812321 50.2246 0.921625 50.2842C1.02844 50.3439 1.1452 50.3737 1.26692 50.3737C1.40107 50.3737 1.53024 50.3389 1.65197 50.2718C1.77369 50.2047 1.85567 50.1153 1.8979 50.0035L2.33015 50.1277C2.27798 50.2445 2.19848 50.3488 2.09167 50.4432C1.98485 50.5376 1.86064 50.6097 1.71656 50.6643C1.57248 50.719 1.41597 50.7463 1.24705 50.7463L1.24953 50.7513ZM0.526643 49.3402H1.98236C1.97243 49.2036 1.93516 49.0844 1.86561 48.98C1.79605 48.8757 1.7091 48.7937 1.60229 48.7366C1.49547 48.677 1.37871 48.6497 1.24953 48.6497C1.12036 48.6497 1.00857 48.6795 0.901751 48.7366C0.794932 48.7962 0.707987 48.8757 0.640914 48.98C0.573842 49.0844 0.534095 49.2036 0.526643 49.3402ZM1.411 47.9466L1.07813 47.8448L1.34145 47.338H1.82586L1.411 47.9466Z" fill="white"/>
<path d="M3.88772 50.7512C3.70141 50.7512 3.53 50.7189 3.37846 50.6518C3.22693 50.5872 3.09527 50.4953 2.98348 50.3811C2.8717 50.2643 2.78723 50.1327 2.72761 49.9836C2.66799 49.8346 2.63818 49.6756 2.63818 49.5091C2.63818 49.2831 2.69035 49.0769 2.7922 48.8931C2.89405 48.7067 3.04062 48.5577 3.22693 48.4459C3.41324 48.3341 3.63433 48.277 3.88772 48.277C4.1411 48.277 4.34729 48.3316 4.53112 48.4409C4.71494 48.5502 4.84909 48.6943 4.93355 48.8757L4.4392 49.0322C4.38455 48.9303 4.30506 48.8508 4.20569 48.7937C4.10632 48.7365 3.99702 48.7092 3.8753 48.7092C3.74115 48.7092 3.61694 48.744 3.50764 48.8111C3.39834 48.8781 3.31139 48.9725 3.24929 49.0918C3.18718 49.211 3.15489 49.3501 3.15489 49.5066C3.15489 49.6631 3.18718 49.7948 3.25177 49.919C3.31636 50.0432 3.40331 50.1376 3.51261 50.2097C3.62191 50.2817 3.74364 50.3165 3.88027 50.3165C3.96224 50.3165 4.04422 50.3016 4.12123 50.2718C4.20072 50.242 4.26779 50.2022 4.32741 50.1525C4.38455 50.1028 4.42678 50.0457 4.45162 49.9836L4.94846 50.1302C4.89629 50.2494 4.81928 50.3562 4.71494 50.4481C4.61309 50.5401 4.49137 50.6146 4.34977 50.6667C4.21066 50.7214 4.05416 50.7487 3.88275 50.7487L3.88772 50.7512Z" fill="white"/>
<path d="M6.4393 50.7512C6.24802 50.7512 6.0791 50.7189 5.92757 50.6518C5.77603 50.5872 5.64686 50.4953 5.53755 50.3811C5.42825 50.2643 5.34379 50.1326 5.28665 49.9861C5.22703 49.8395 5.19971 49.6805 5.19971 49.5141C5.19971 49.3477 5.22952 49.1887 5.28665 49.0396C5.34379 48.8906 5.42825 48.7589 5.53755 48.6446C5.64686 48.5304 5.77852 48.4409 5.93005 48.3763C6.08159 48.3118 6.25299 48.277 6.4393 48.277C6.62562 48.277 6.79702 48.3093 6.94856 48.3763C7.10009 48.4434 7.23175 48.5304 7.34106 48.6446C7.45036 48.7589 7.53482 48.8906 7.59196 49.0396C7.64909 49.1887 7.6789 49.3477 7.6789 49.5141C7.6789 49.6805 7.64909 49.8395 7.59196 49.9861C7.53234 50.1326 7.45036 50.2668 7.34106 50.3811C7.23175 50.4978 7.10009 50.5872 6.94856 50.6518C6.79702 50.7164 6.62562 50.7512 6.4393 50.7512ZM5.7189 49.5166C5.7189 49.6681 5.75119 49.8047 5.81578 49.9265C5.88037 50.0482 5.96731 50.1426 6.07413 50.2121C6.18095 50.2817 6.30268 50.3165 6.4393 50.3165C6.57593 50.3165 6.69269 50.2817 6.80199 50.2097C6.9113 50.1376 6.99824 50.0407 7.06283 49.919C7.12742 49.7973 7.15971 49.6607 7.15971 49.5116C7.15971 49.3626 7.12742 49.2234 7.06283 49.1017C6.99824 48.98 6.9113 48.8831 6.80199 48.8136C6.69269 48.7415 6.57097 48.7067 6.4393 48.7067C6.30764 48.7067 6.18344 48.744 6.07413 48.816C5.96483 48.8881 5.88037 48.985 5.81578 49.1042C5.75119 49.2234 5.7189 49.3601 5.7189 49.5166Z" fill="white"/>
<path d="M8.13574 47.338H8.64251V50.0159C8.64251 50.1401 8.6599 50.2172 8.69716 50.2519C8.73443 50.2867 8.77914 50.3041 8.83628 50.3041C8.89838 50.3041 8.95552 50.2991 9.01017 50.2867C9.06482 50.2743 9.11202 50.2594 9.15177 50.2395L9.22629 50.642C9.15176 50.6718 9.06482 50.6991 8.96297 50.7214C8.86112 50.7438 8.77169 50.7537 8.68971 50.7537C8.5183 50.7537 8.38167 50.7041 8.28479 50.6072C8.18543 50.5103 8.13823 50.3761 8.13823 50.2023V47.3405L8.13574 47.338Z" fill="white"/>
<path d="M10.6123 50.7514C10.426 50.7514 10.2546 50.7191 10.1031 50.652C9.95154 50.5875 9.81988 50.4955 9.70809 50.3813C9.59631 50.267 9.51184 50.1353 9.45222 49.9888C9.3926 49.8397 9.36279 49.6832 9.36279 49.5143C9.36279 49.2882 9.41496 49.0821 9.5193 48.8957C9.62363 48.7094 9.7702 48.5579 9.95651 48.4436C10.1428 48.3293 10.3639 48.2722 10.6148 48.2722C10.8657 48.2722 11.0843 48.3293 11.2681 48.4436C11.452 48.5579 11.5936 48.7069 11.6954 48.8933C11.7973 49.0796 11.847 49.2783 11.847 49.4919C11.847 49.5292 11.847 49.564 11.842 49.5938C11.8395 49.6261 11.837 49.6534 11.8321 49.6733H9.89937C9.90931 49.8124 9.94657 49.9341 10.0161 50.0385C10.0857 50.1428 10.1726 50.2248 10.2819 50.2844C10.3888 50.344 10.5055 50.3738 10.6272 50.3738C10.7614 50.3738 10.8906 50.339 11.0123 50.272C11.134 50.2049 11.216 50.1155 11.2582 50.0037L11.6905 50.1279C11.6383 50.2446 11.5588 50.349 11.452 50.4434C11.3452 50.5378 11.2209 50.6098 11.0769 50.6645C10.9328 50.7191 10.7763 50.7464 10.6074 50.7464L10.6123 50.7514ZM9.88944 49.3404H11.3476C11.3377 49.2038 11.3004 49.0845 11.2309 48.9802C11.1613 48.8759 11.0744 48.7939 10.9676 48.7368C10.8607 48.6771 10.744 48.6498 10.6148 48.6498C10.4856 48.6498 10.3738 48.6796 10.267 48.7368C10.1602 48.7964 10.0733 48.8759 10.0062 48.9802C9.93912 49.0845 9.89937 49.2038 9.89192 49.3404H9.88944Z" fill="white"/>
<path d="M13.4023 47.8969V47.338H13.9091V47.8969H13.4023ZM13.4023 50.7065V48.2944H13.9091V50.7065H13.4023Z" fill="white"/>
<path d="M16.6788 50.7042H16.1721V49.3677C16.1721 49.1466 16.1348 48.9826 16.0628 48.8808C15.9907 48.7765 15.8839 48.7268 15.7423 48.7268C15.6429 48.7268 15.5461 48.7516 15.4492 48.7988C15.3523 48.846 15.2654 48.9131 15.1883 48.9951C15.1113 49.077 15.0567 49.1739 15.0219 49.2832V50.7042H14.5151V48.3119H14.9772V48.7963C15.0393 48.6895 15.1188 48.5976 15.2182 48.5206C15.3175 48.4436 15.4318 48.384 15.556 48.3392C15.6827 48.297 15.8168 48.2747 15.956 48.2747C16.0951 48.2747 16.2193 48.2995 16.3137 48.3517C16.4081 48.4038 16.4801 48.4734 16.5348 48.5653C16.5894 48.6547 16.6242 48.7591 16.6465 48.8758C16.6664 48.9926 16.6764 49.1168 16.6764 49.2484V50.7067L16.6788 50.7042Z" fill="white"/>
<path d="M18.5943 50.59C18.552 50.6123 18.4974 50.6347 18.4328 50.6595C18.3682 50.6844 18.2962 50.7067 18.2142 50.7241C18.1322 50.7415 18.0477 50.7514 17.9633 50.7514C17.8589 50.7514 17.7621 50.734 17.6726 50.6968C17.5832 50.6595 17.5112 50.6024 17.459 50.5204C17.4043 50.4384 17.3795 50.3341 17.3795 50.2049V48.7045H17.0615V48.312H17.3795V47.5195H17.8863V48.312H18.4129V48.7045H17.8863V50.0434C17.8912 50.1254 17.9186 50.1875 17.9658 50.2273C18.013 50.267 18.0726 50.2869 18.1421 50.2869C18.2117 50.2869 18.2812 50.2745 18.3458 50.2496C18.4104 50.2248 18.4576 50.2049 18.4899 50.19L18.5967 50.5924L18.5943 50.59Z" fill="white"/>
<path d="M19.978 50.7514C19.7917 50.7514 19.6203 50.7191 19.4688 50.652C19.3173 50.5875 19.1856 50.4955 19.0738 50.3813C18.962 50.267 18.8776 50.1353 18.8179 49.9888C18.7583 49.8397 18.7285 49.6832 18.7285 49.5143C18.7285 49.2882 18.7807 49.0821 18.885 48.8957C18.9894 48.7094 19.1359 48.5579 19.3222 48.4436C19.5085 48.3293 19.7296 48.2722 19.9805 48.2722C20.2314 48.2722 20.45 48.3293 20.6339 48.4436C20.8177 48.5579 20.9593 48.7069 21.0611 48.8933C21.163 49.0796 21.2127 49.2783 21.2127 49.4919C21.2127 49.5292 21.2127 49.564 21.2077 49.5938C21.2052 49.6261 21.2027 49.6534 21.1978 49.6733H19.2651C19.275 49.8124 19.3123 49.9341 19.3818 50.0385C19.4514 50.1428 19.5384 50.2248 19.6477 50.2844C19.7545 50.344 19.8712 50.3738 19.993 50.3738C20.1271 50.3738 20.2563 50.339 20.378 50.272C20.4997 50.2049 20.5817 50.1155 20.6239 50.0037L21.0562 50.1279C21.004 50.2446 20.9245 50.349 20.8177 50.4434C20.7109 50.5378 20.5867 50.6098 20.4426 50.6645C20.2985 50.7191 20.142 50.7464 19.9731 50.7464L19.978 50.7514ZM19.2552 49.3404H20.7134C20.7034 49.2038 20.6662 49.0845 20.5966 48.9802C20.5271 48.8759 20.4401 48.7939 20.3333 48.7368C20.2265 48.6771 20.1097 48.6498 19.9805 48.6498C19.8514 48.6498 19.7396 48.6796 19.6328 48.7368C19.5259 48.7964 19.439 48.8759 19.3719 48.9802C19.3048 49.0845 19.2651 49.2038 19.2576 49.3404H19.2552Z" fill="white"/>
<path d="M22.9838 48.7318C22.7875 48.7343 22.6137 48.779 22.4596 48.8659C22.3081 48.9529 22.1988 49.0746 22.1342 49.2311V50.7067H21.6274V48.3144H22.0969V48.8361C22.1789 48.6697 22.2882 48.538 22.4249 48.4362C22.559 48.3368 22.7031 48.2822 22.8546 48.2722H22.9316C22.9515 48.2722 22.9689 48.2722 22.9838 48.2772V48.7343V48.7318Z" fill="white"/>
<path d="M25.5148 50.7042H25.008V49.3677C25.008 49.1466 24.9707 48.9826 24.8987 48.8808C24.8267 48.7765 24.7198 48.7268 24.5783 48.7268C24.4789 48.7268 24.382 48.7516 24.2851 48.7988C24.1882 48.846 24.1013 48.9131 24.0243 48.9951C23.9473 49.077 23.8926 49.1739 23.8578 49.2832V50.7042H23.3511V48.3119H23.8131V48.7963C23.8752 48.6895 23.9547 48.5976 24.0541 48.5206C24.1535 48.4436 24.2677 48.384 24.3919 48.3392C24.5186 48.297 24.6528 48.2747 24.7919 48.2747C24.931 48.2747 25.0552 48.2995 25.1496 48.3517C25.244 48.4038 25.316 48.4734 25.3707 48.5653C25.4254 48.6547 25.4601 48.7591 25.4825 48.8758C25.5024 48.9926 25.5123 49.1168 25.5123 49.2484V50.7067L25.5148 50.7042Z" fill="white"/>
<path d="M25.9297 50.0062C25.9297 49.8546 25.9744 49.7205 26.0614 49.6062C26.1483 49.4919 26.2701 49.4025 26.4241 49.3404C26.5781 49.2783 26.757 49.246 26.9582 49.246C27.065 49.246 27.1768 49.2535 27.2886 49.2684C27.4004 49.2833 27.4997 49.3081 27.5867 49.3429V49.1914C27.5867 49.0249 27.537 48.8957 27.4351 48.8013C27.3333 48.7069 27.1867 48.6597 26.9979 48.6597C26.8638 48.6597 26.7346 48.6846 26.6154 48.7318C26.4961 48.779 26.3669 48.8461 26.2328 48.933L26.0614 48.5927C26.2204 48.4859 26.3818 48.4064 26.5433 48.3517C26.7048 48.2995 26.8737 48.2722 27.0526 48.2722C27.3755 48.2722 27.6289 48.3567 27.8152 48.5256C28.0015 48.6945 28.0934 48.933 28.0934 49.2435V50.1329C28.0934 50.19 28.1034 50.2322 28.1232 50.2571C28.1431 50.2819 28.1779 50.2943 28.2276 50.2993V50.7042C28.1804 50.7141 28.1406 50.7191 28.1034 50.7216C28.0661 50.7241 28.0363 50.7266 28.0115 50.7266C27.9046 50.7266 27.8227 50.7017 27.768 50.6471C27.7134 50.5949 27.6811 50.5328 27.6711 50.4632L27.6562 50.3241C27.5519 50.4583 27.4177 50.5651 27.2538 50.6371C27.0898 50.7117 26.9259 50.7489 26.7594 50.7489C26.593 50.7489 26.4564 50.7166 26.3297 50.6496C26.203 50.5825 26.1061 50.4955 26.0341 50.3813C25.9645 50.2695 25.9272 50.1428 25.9272 50.0012L25.9297 50.0062ZM27.4649 50.1502C27.5022 50.1105 27.532 50.0708 27.5519 50.0335C27.5742 49.9937 27.5842 49.959 27.5842 49.9292V49.6559C27.4972 49.6236 27.4078 49.5988 27.3109 49.5814C27.2165 49.564 27.1221 49.5565 27.0302 49.5565C26.8464 49.5565 26.6949 49.5938 26.5806 49.6658C26.4663 49.7379 26.4067 49.8372 26.4067 49.9664C26.4067 50.036 26.4266 50.103 26.4638 50.1651C26.5011 50.2297 26.5582 50.2794 26.6303 50.3192C26.7023 50.3589 26.7917 50.3788 26.901 50.3788C27.0103 50.3788 27.1172 50.3589 27.219 50.3167C27.3209 50.2745 27.4028 50.2198 27.4625 50.1527L27.4649 50.1502Z" fill="white"/>
<path d="M30.0361 50.59C29.9939 50.6123 29.9393 50.6347 29.8747 50.6595C29.8101 50.6844 29.738 50.7067 29.6561 50.7241C29.5741 50.7415 29.4896 50.7514 29.4052 50.7514C29.3008 50.7514 29.204 50.734 29.1145 50.6968C29.0251 50.6595 28.9531 50.6024 28.9009 50.5204C28.8462 50.4384 28.8214 50.3341 28.8214 50.2049V48.7045H28.5034V48.312H28.8214V47.5195H29.3282V48.312H29.8548V48.7045H29.3282V50.0434C29.3331 50.1254 29.3605 50.1875 29.4077 50.2273C29.4549 50.267 29.5145 50.2869 29.584 50.2869C29.6536 50.2869 29.7231 50.2745 29.7877 50.2496C29.8523 50.2248 29.8995 50.2049 29.9318 50.19L30.0386 50.5924L30.0361 50.59Z" fill="white"/>
<path d="M30.3862 47.8969V47.338H30.893V47.8969H30.3862ZM30.3862 50.7065V48.2944H30.893V50.7065H30.3862Z" fill="white"/>
<path d="M32.5848 50.7512C32.3935 50.7512 32.2246 50.7189 32.0731 50.6518C31.9215 50.5872 31.7924 50.4953 31.6831 50.3811C31.5738 50.2643 31.4893 50.1326 31.4322 49.9861C31.3725 49.8395 31.3452 49.6805 31.3452 49.5141C31.3452 49.3477 31.375 49.1887 31.4322 49.0396C31.4893 48.8906 31.5738 48.7589 31.6831 48.6446C31.7924 48.5304 31.924 48.4409 32.0756 48.3763C32.2271 48.3118 32.3985 48.277 32.5848 48.277C32.7711 48.277 32.9425 48.3093 33.0941 48.3763C33.2456 48.4434 33.3773 48.5304 33.4866 48.6446C33.5959 48.7589 33.6803 48.8906 33.7375 49.0396C33.7946 49.1887 33.8244 49.3477 33.8244 49.5141C33.8244 49.6805 33.7946 49.8395 33.7375 49.9861C33.6778 50.1326 33.5959 50.2668 33.4866 50.3811C33.3773 50.4978 33.2456 50.5872 33.0941 50.6518C32.9425 50.7164 32.7711 50.7512 32.5848 50.7512ZM31.8644 49.5166C31.8644 49.6681 31.8967 49.8047 31.9613 49.9265C32.0259 50.0482 32.1128 50.1426 32.2196 50.2121C32.3265 50.2817 32.4482 50.3165 32.5848 50.3165C32.7214 50.3165 32.8382 50.2817 32.9475 50.2097C33.0568 50.1376 33.1437 50.0407 33.2083 49.919C33.2729 49.7973 33.3052 49.6607 33.3052 49.5116C33.3052 49.3626 33.2729 49.2234 33.2083 49.1017C33.1437 48.98 33.0568 48.8831 32.9475 48.8136C32.8382 48.7415 32.7165 48.7067 32.5848 48.7067C32.4532 48.7067 32.3289 48.744 32.2196 48.816C32.1103 48.8881 32.0259 48.985 31.9613 49.1042C31.8967 49.2234 31.8644 49.3601 31.8644 49.5166Z" fill="white"/>
<path d="M36.4406 50.7042H35.9338V49.3677C35.9338 49.1466 35.8965 48.9826 35.8245 48.8808C35.7525 48.7765 35.6456 48.7268 35.504 48.7268C35.4047 48.7268 35.3078 48.7516 35.2109 48.7988C35.114 48.846 35.0271 48.9131 34.9501 48.9951C34.8731 49.077 34.8184 49.1739 34.7836 49.2832V50.7042H34.2769V48.3119H34.7389V48.7963C34.801 48.6895 34.8805 48.5976 34.9799 48.5206C35.0792 48.4436 35.1935 48.384 35.3177 48.3392C35.4444 48.297 35.5786 48.2747 35.7177 48.2747C35.8568 48.2747 35.981 48.2995 36.0754 48.3517C36.1698 48.4038 36.2418 48.4734 36.2965 48.5653C36.3511 48.6547 36.3859 48.7591 36.4083 48.8758C36.4281 48.9926 36.4381 49.1168 36.4381 49.2484V50.7067L36.4406 50.7042Z" fill="white"/>
<path d="M36.855 50.0062C36.855 49.8546 36.8997 49.7205 36.9867 49.6062C37.0736 49.4919 37.1954 49.4025 37.3494 49.3404C37.5034 49.2783 37.6822 49.246 37.8835 49.246C37.9903 49.246 38.1021 49.2535 38.2139 49.2684C38.3256 49.2833 38.425 49.3081 38.512 49.3429V49.1914C38.512 49.0249 38.4623 48.8957 38.3604 48.8013C38.2586 48.7069 38.112 48.6597 37.9232 48.6597C37.7891 48.6597 37.6599 48.6846 37.5406 48.7318C37.4214 48.779 37.2922 48.8461 37.1581 48.933L36.9867 48.5927C37.1457 48.4859 37.3071 48.4064 37.4686 48.3517C37.6301 48.2995 37.799 48.2722 37.9779 48.2722C38.3008 48.2722 38.5542 48.3567 38.7405 48.5256C38.9268 48.6945 39.0187 48.933 39.0187 49.2435V50.1329C39.0187 50.19 39.0287 50.2322 39.0485 50.2571C39.0684 50.2819 39.1032 50.2943 39.1529 50.2993V50.7042C39.1057 50.7141 39.0659 50.7191 39.0287 50.7216C38.9914 50.7241 38.9616 50.7266 38.9368 50.7266C38.8299 50.7266 38.748 50.7017 38.6933 50.6471C38.6386 50.5949 38.6064 50.5328 38.5964 50.4632L38.5815 50.3241C38.4772 50.4583 38.343 50.5651 38.1791 50.6371C38.0151 50.7117 37.8512 50.7489 37.6847 50.7489C37.5183 50.7489 37.3817 50.7166 37.255 50.6496C37.1283 50.5825 37.0314 50.4955 36.9594 50.3813C36.8898 50.2695 36.8525 50.1428 36.8525 50.0012L36.855 50.0062ZM38.3902 50.1502C38.4275 50.1105 38.4573 50.0708 38.4772 50.0335C38.4995 49.9937 38.5095 49.959 38.5095 49.9292V49.6559C38.4225 49.6236 38.3331 49.5988 38.2362 49.5814C38.1418 49.564 38.0474 49.5565 37.9555 49.5565C37.7717 49.5565 37.6201 49.5938 37.5059 49.6658C37.3916 49.7379 37.332 49.8372 37.332 49.9664C37.332 50.036 37.3519 50.103 37.3891 50.1651C37.4264 50.2297 37.4835 50.2794 37.5556 50.3192C37.6276 50.3589 37.717 50.3788 37.8263 50.3788C37.9356 50.3788 38.0425 50.3589 38.1443 50.3167C38.2462 50.2745 38.3281 50.2198 38.3878 50.1527L38.3902 50.1502Z" fill="white"/>
<path d="M39.6353 47.338H40.142V50.0159C40.142 50.1401 40.1594 50.2172 40.1967 50.2519C40.2339 50.2867 40.2787 50.3041 40.3358 50.3041C40.3979 50.3041 40.455 50.2991 40.5097 50.2867C40.5643 50.2743 40.6115 50.2594 40.6513 50.2395L40.7258 50.642C40.6513 50.6718 40.5643 50.6991 40.4625 50.7214C40.3606 50.7438 40.2712 50.7537 40.1892 50.7537C40.0178 50.7537 39.8812 50.7041 39.7843 50.6072C39.6849 50.5103 39.6377 50.3761 39.6377 50.2023V47.3405L39.6353 47.338Z" fill="white"/>
<path d="M42.1118 50.7514C41.9255 50.7514 41.7541 50.7191 41.6026 50.652C41.4511 50.5875 41.3194 50.4955 41.2076 50.3813C41.0958 50.267 41.0114 50.1353 40.9517 49.9888C40.8921 49.8397 40.8623 49.6832 40.8623 49.5143C40.8623 49.2882 40.9145 49.0821 41.0188 48.8957C41.1231 48.7094 41.2697 48.5579 41.456 48.4436C41.6423 48.3293 41.8634 48.2722 42.1143 48.2722C42.3652 48.2722 42.5838 48.3293 42.7677 48.4436C42.9515 48.5579 43.0931 48.7069 43.1949 48.8933C43.2968 49.0796 43.3465 49.2783 43.3465 49.4919C43.3465 49.5292 43.3465 49.564 43.3415 49.5938C43.339 49.6261 43.3365 49.6534 43.3316 49.6733H41.3989C41.4088 49.8124 41.4461 49.9341 41.5156 50.0385C41.5852 50.1428 41.6721 50.2248 41.7814 50.2844C41.8883 50.344 42.005 50.3738 42.1267 50.3738C42.2609 50.3738 42.3901 50.339 42.5118 50.272C42.6335 50.2049 42.7155 50.1155 42.7577 50.0037L43.19 50.1279C43.1378 50.2446 43.0583 50.349 42.9515 50.4434C42.8447 50.5378 42.7205 50.6098 42.5764 50.6645C42.4323 50.7191 42.2758 50.7464 42.1069 50.7464L42.1118 50.7514ZM41.3889 49.3404H42.8471C42.8372 49.2038 42.7999 49.0845 42.7304 48.9802C42.6608 48.8759 42.5739 48.7939 42.4671 48.7368C42.3603 48.6771 42.2435 48.6498 42.1143 48.6498C41.9851 48.6498 41.8734 48.6796 41.7665 48.7368C41.6597 48.7964 41.5728 48.8759 41.5057 48.9802C41.4386 49.0845 41.3989 49.2038 41.3914 49.3404H41.3889Z" fill="white"/>
<path d="M0.074707 55.6228C0.074707 55.2899 0.141779 54.9868 0.278408 54.7161C0.415037 54.4453 0.60135 54.2267 0.83983 54.0652C1.07831 53.9037 1.34908 53.8218 1.6596 53.8218C1.92789 53.8218 2.17134 53.8913 2.38746 54.0304C2.60359 54.1696 2.77251 54.341 2.89423 54.5471V52.4604H3.63203V56.527C3.63203 56.6115 3.64693 56.6711 3.67923 56.7084C3.71152 56.7431 3.76121 56.763 3.83325 56.768V57.3592C3.69413 57.3816 3.58731 57.3915 3.51031 57.3915C3.37119 57.3915 3.25444 57.3518 3.15755 57.2698C3.06067 57.1903 3.01099 57.0934 3.00602 56.9816L2.99857 56.7208C2.86442 56.9444 2.68308 57.1183 2.45454 57.24C2.22599 57.3617 1.99 57.4238 1.74407 57.4238C1.49813 57.4238 1.27953 57.3766 1.07582 57.2847C0.872124 57.1903 0.695748 57.0611 0.546698 56.8922C0.397648 56.7233 0.280893 56.532 0.198915 56.3134C0.116938 56.0948 0.074707 55.8662 0.074707 55.6228ZM2.89423 56.1047V55.198C2.84455 55.0564 2.76506 54.9297 2.65575 54.8179C2.54645 54.7061 2.42224 54.6167 2.28561 54.5496C2.14898 54.4826 2.01484 54.4503 1.88069 54.4503C1.72419 54.4503 1.58259 54.4826 1.45342 54.5496C1.32673 54.6167 1.21742 54.7037 1.12551 54.8154C1.03359 54.9272 0.964038 55.0514 0.914354 55.193C0.864671 55.3346 0.83983 55.4812 0.83983 55.6352C0.83983 55.7892 0.867155 55.9432 0.919323 56.0824C0.97149 56.2215 1.05098 56.3457 1.15035 56.4525C1.24972 56.5593 1.36647 56.6438 1.49813 56.7034C1.62979 56.763 1.77387 56.7928 1.93038 56.7928C2.02974 56.7928 2.12911 56.7754 2.22848 56.7407C2.33033 56.7059 2.42473 56.6562 2.51664 56.5941C2.60855 56.532 2.68556 56.46 2.75264 56.3755C2.81722 56.291 2.86442 56.2016 2.88926 56.1047H2.89423Z" fill="white"/>
<path d="M6.16074 57.4238C5.88748 57.4238 5.64155 57.3766 5.41797 57.2797C5.19688 57.1853 5.0056 57.0536 4.84413 56.8872C4.68266 56.7208 4.55845 56.5295 4.4715 56.3134C4.38456 56.0972 4.33984 55.8687 4.33984 55.6228C4.33984 55.2949 4.41685 54.9967 4.56839 54.7235C4.71992 54.4502 4.93356 54.2316 5.20682 54.0652C5.48007 53.8987 5.80053 53.8168 6.1657 53.8168C6.53088 53.8168 6.84885 53.8987 7.11465 54.0652C7.38046 54.2316 7.58665 54.4502 7.7357 54.7185C7.88475 54.9868 7.95679 55.2799 7.95679 55.588C7.95679 55.6401 7.95679 55.6923 7.94933 55.737C7.94188 55.7817 7.9394 55.8215 7.93691 55.8538H5.12484C5.13726 56.0575 5.1944 56.2339 5.29625 56.3879C5.39561 56.5394 5.52479 56.6587 5.68129 56.7456C5.83779 56.8325 6.00672 56.8748 6.18558 56.8748C6.38183 56.8748 6.56814 56.8251 6.747 56.7282C6.92337 56.6288 7.04261 56.4997 7.1072 56.3382L7.73818 56.5195C7.66117 56.6885 7.5469 56.8425 7.39288 56.9791C7.23886 57.1157 7.05503 57.2226 6.84636 57.3021C6.63521 57.3791 6.40667 57.4188 6.16074 57.4188V57.4238ZM5.10745 55.3694H7.22893C7.21651 55.1731 7.15937 54.9967 7.05752 54.8452C6.95567 54.6937 6.82898 54.5744 6.67496 54.49C6.52094 54.4055 6.34953 54.3608 6.16074 54.3608C5.97194 54.3608 5.80798 54.403 5.65397 54.49C5.49995 54.5744 5.37326 54.6937 5.27389 54.8452C5.17452 54.9967 5.11987 55.1706 5.10497 55.3694H5.10745Z" fill="white"/>
<path d="M11.6111 57.4238C11.3751 57.4238 11.1565 57.3766 10.9602 57.2797C10.764 57.1828 10.5951 57.0536 10.4535 56.8872C10.3119 56.7208 10.2026 56.532 10.1255 56.3158C10.0485 56.0997 10.0088 55.8761 10.0088 55.6377C10.0088 55.3868 10.0485 55.1533 10.1305 54.9322C10.21 54.7136 10.3243 54.5198 10.4684 54.3509C10.6124 54.1819 10.7838 54.0528 10.9826 53.9584C11.1788 53.864 11.3974 53.8168 11.6409 53.8168C11.9216 53.8168 12.17 53.8838 12.3812 54.0155C12.5948 54.1472 12.7687 54.3211 12.9078 54.5347V53.8714H13.5587V57.2623C13.5587 57.6002 13.4767 57.8883 13.3127 58.1243C13.1488 58.3603 12.9277 58.5392 12.6445 58.6659C12.3638 58.7901 12.0458 58.8522 11.6906 58.8522C11.3006 58.8522 10.9801 58.7851 10.7242 58.651C10.4684 58.5168 10.2522 58.333 10.0734 58.102L10.4907 57.7119C10.6249 57.9007 10.7988 58.0423 11.0099 58.1417C11.2211 58.2411 11.4496 58.2883 11.6906 58.2883C11.8918 58.2883 12.0781 58.2535 12.252 58.1814C12.4234 58.1094 12.5625 58.0001 12.6644 57.8511C12.7662 57.702 12.8184 57.5132 12.8184 57.2871V56.7506C12.6942 56.9617 12.5203 57.1257 12.3017 57.2449C12.0831 57.3642 11.852 57.4238 11.6111 57.4238ZM11.852 56.8276C11.9638 56.8276 12.0706 56.8077 12.175 56.7704C12.2768 56.7332 12.3737 56.681 12.4607 56.6164C12.5476 56.5518 12.6221 56.4773 12.6867 56.3953C12.7488 56.3134 12.7935 56.2239 12.8209 56.1295V55.2104C12.7637 55.0589 12.6793 54.9247 12.5724 54.8104C12.4656 54.6962 12.3439 54.6067 12.2098 54.5446C12.0756 54.4825 11.939 54.4502 11.7999 54.4502C11.6384 54.4502 11.4943 54.485 11.3676 54.5546C11.2409 54.6241 11.1316 54.716 11.0422 54.8303C10.9528 54.9446 10.8832 55.0738 10.8335 55.2154C10.7838 55.3594 10.759 55.506 10.759 55.6575C10.759 55.819 10.7863 55.9681 10.8435 56.1072C10.9006 56.2463 10.9776 56.3705 11.0745 56.4798C11.1739 56.5891 11.2881 56.6736 11.4223 56.7357C11.5564 56.7953 11.7005 56.8276 11.852 56.8276Z" fill="white"/>
<path d="M16.4153 54.485C16.1296 54.49 15.8762 54.5546 15.6527 54.6788C15.4316 54.803 15.2726 54.9819 15.1807 55.2079V57.3542H14.4429V53.8714H15.1285V54.6291C15.2502 54.3881 15.4092 54.1944 15.6055 54.0478C15.8017 53.9012 16.0104 53.8217 16.229 53.8093H16.3408C16.3706 53.8093 16.3954 53.8093 16.4178 53.8168V54.48L16.4153 54.485Z" fill="white"/>
<path d="M16.6489 56.3404C16.6489 56.1193 16.7135 55.9255 16.8402 55.7591C16.9669 55.5926 17.1433 55.4634 17.3669 55.374C17.5904 55.2821 17.8513 55.2374 18.1444 55.2374C18.3009 55.2374 18.4599 55.2498 18.6238 55.2722C18.7878 55.2945 18.9319 55.3293 19.0561 55.379V55.1579C19.0561 54.9144 18.9816 54.7256 18.835 54.589C18.6884 54.4524 18.4748 54.3853 18.1966 54.3853C18.0003 54.3853 17.814 54.4201 17.6401 54.4897C17.4662 54.5592 17.2799 54.6561 17.0837 54.7803L16.8352 54.2835C17.0687 54.127 17.3023 54.0102 17.5358 53.9357C17.7718 53.8587 18.0177 53.8214 18.2785 53.8214C18.748 53.8214 19.1182 53.9431 19.389 54.1891C19.6597 54.435 19.7939 54.7828 19.7939 55.2349V56.5291C19.7939 56.6136 19.8088 56.6732 19.8386 56.708C19.8684 56.7428 19.9181 56.7627 19.9901 56.7676V57.3589C19.9231 57.3713 19.8634 57.3812 19.8088 57.3862C19.7541 57.3912 19.7094 57.3936 19.6746 57.3936C19.5181 57.3936 19.3989 57.3564 19.3194 57.2794C19.2399 57.2024 19.1927 57.1129 19.1778 57.0111L19.1579 56.8099C19.0064 57.0061 18.8101 57.1576 18.5742 57.2669C18.3382 57.3738 18.0972 57.4284 17.8562 57.4284C17.6153 57.4284 17.4165 57.3812 17.2327 57.2843C17.0489 57.1899 16.9073 57.0583 16.8029 56.8943C16.7011 56.7304 16.6489 56.5465 16.6489 56.3428V56.3404ZM18.8847 56.5515C18.9393 56.4944 18.9816 56.4372 19.0114 56.3801C19.0412 56.323 19.0586 56.2733 19.0586 56.2286V55.8336C18.9344 55.7864 18.8002 55.7491 18.6636 55.7243C18.5245 55.6994 18.3878 55.687 18.2537 55.687C17.9854 55.687 17.7668 55.7392 17.6004 55.846C17.4339 55.9528 17.3495 56.0969 17.3495 56.2807C17.3495 56.3826 17.3768 56.4795 17.4339 56.5714C17.4911 56.6633 17.5706 56.7378 17.6749 56.795C17.7792 56.8521 17.9109 56.8819 18.0674 56.8819C18.2239 56.8819 18.3829 56.8521 18.5294 56.79C18.676 56.7279 18.7952 56.6484 18.8847 56.5515Z" fill="white"/>
<path d="M22.6832 57.4236C22.4025 57.4236 22.1541 57.3565 21.938 57.2249C21.7243 57.0907 21.5529 56.9193 21.4287 56.7057V58.7849H20.6909V53.8737H21.3418V54.5047C21.4759 54.2961 21.6498 54.1296 21.8659 54.0054C22.0796 53.8812 22.3205 53.8191 22.5839 53.8191C22.8248 53.8191 23.0459 53.8663 23.2471 53.9632C23.4483 54.0601 23.6222 54.1917 23.7713 54.3582C23.9178 54.5271 24.0346 54.7184 24.1166 54.932C24.1986 55.1481 24.2408 55.3742 24.2408 55.6127C24.2408 55.9455 24.1737 56.2486 24.0421 56.5243C23.9104 56.8001 23.7266 57.0162 23.4931 57.1802C23.2571 57.3416 22.9888 57.4236 22.6832 57.4236ZM22.4423 56.7926C22.5988 56.7926 22.7404 56.7603 22.8695 56.6933C22.9962 56.6262 23.1055 56.5393 23.1974 56.4275C23.2894 56.3182 23.3589 56.1915 23.4086 56.0499C23.4583 55.9083 23.4831 55.7642 23.4831 55.6127C23.4831 55.4537 23.4558 55.3046 23.4036 55.163C23.349 55.0214 23.272 54.8972 23.1726 54.7929C23.0732 54.6886 22.9565 54.6041 22.8248 54.542C22.6932 54.4799 22.5491 54.4501 22.3926 54.4501C22.2982 54.4501 22.2013 54.4675 22.097 54.5022C21.9951 54.537 21.8982 54.5867 21.8088 54.6463C21.7194 54.7084 21.6399 54.7805 21.5728 54.8649C21.5057 54.9494 21.4585 55.0363 21.4312 55.1282V56.0399C21.4933 56.1815 21.5753 56.3082 21.6796 56.42C21.7815 56.5318 21.9007 56.6212 22.0348 56.6908C22.169 56.7603 22.3056 56.7926 22.4447 56.7926H22.4423Z" fill="white"/>
<path d="M28.0512 57.3564H27.3134V55.4138C27.3134 55.1008 27.2563 54.8648 27.1396 54.7108C27.0228 54.5568 26.8588 54.4798 26.6502 54.4798C26.521 54.4798 26.3869 54.5146 26.2477 54.5866C26.1086 54.6562 25.9869 54.753 25.8776 54.8748C25.7708 54.9965 25.6913 55.1356 25.6416 55.2946V57.3614H24.9038V52.4626H25.6416V54.5816C25.7758 54.3456 25.9596 54.1618 26.1906 54.0277C26.4216 53.8935 26.675 53.824 26.9433 53.824C27.1619 53.824 27.3433 53.8612 27.4873 53.9382C27.6314 54.0128 27.7432 54.1171 27.8252 54.2488C27.9072 54.3804 27.9668 54.5295 27.9991 54.7009C28.0339 54.8723 28.0488 55.0511 28.0488 55.2424V57.3639L28.0512 57.3564Z" fill="white"/>
<path d="M28.9106 53.2701V52.4578H29.6484V53.2701H28.9106ZM28.9106 57.3565V53.8464H29.6484V57.3565H28.9106Z" fill="white"/>
<path d="M31.7825 57.4234C31.4869 57.4234 31.2086 57.3762 30.9428 57.2794C30.6795 57.1825 30.4534 57.0384 30.2646 56.8471L30.5404 56.3503C30.7416 56.5291 30.9428 56.6583 31.1465 56.7403C31.3502 56.8198 31.5514 56.862 31.7527 56.862C31.9539 56.862 32.1253 56.8248 32.2569 56.7478C32.3861 56.6707 32.4507 56.559 32.4507 56.4099C32.4507 56.2981 32.4159 56.2161 32.3489 56.164C32.2818 56.1118 32.1849 56.0646 32.0557 56.0249C31.929 55.9851 31.775 55.9404 31.5962 55.8907C31.3453 55.8162 31.1341 55.7367 30.9652 55.6547C30.7963 55.5727 30.6671 55.4709 30.5826 55.3517C30.4982 55.2324 30.4559 55.0784 30.4559 54.8921C30.4559 54.666 30.5131 54.4723 30.6298 54.3133C30.7466 54.1543 30.908 54.0326 31.1167 53.9481C31.3254 53.8636 31.5664 53.8214 31.8371 53.8214C32.093 53.8214 32.329 53.8612 32.5451 53.9382C32.7612 54.0177 32.9525 54.1394 33.119 54.3033L32.8035 54.7927C32.647 54.6486 32.488 54.5443 32.324 54.4772C32.1601 54.4102 31.9862 54.3754 31.7974 54.3754C31.6906 54.3754 31.5862 54.3878 31.4893 54.4126C31.3925 54.4375 31.308 54.4822 31.2434 54.5443C31.1788 54.6089 31.1465 54.6983 31.1465 54.8126C31.1465 54.9045 31.1739 54.9815 31.226 55.0386C31.2807 55.0958 31.3602 55.1455 31.467 55.1852C31.5738 55.225 31.7055 55.2697 31.862 55.3169C32.1352 55.3964 32.3663 55.4759 32.56 55.5529C32.7513 55.6299 32.9003 55.7292 33.0072 55.851C33.1115 55.9727 33.1637 56.1391 33.1637 56.3528C33.1637 56.6881 33.037 56.9515 32.7836 57.1403C32.5302 57.3291 32.1948 57.4234 31.7725 57.4234H31.7825Z" fill="white"/>
<path d="M39.1979 57.3565H38.4601V55.4139C38.4601 55.0909 38.4054 54.855 38.2986 54.7034C38.1918 54.5519 38.0353 54.4774 37.8291 54.4774C37.6229 54.4774 37.4316 54.5544 37.2553 54.7059C37.0789 54.8574 36.9547 55.0562 36.8826 55.2996V57.3565H36.1448V55.4139C36.1448 55.0909 36.0902 54.855 35.9834 54.7034C35.8765 54.5519 35.7225 54.4774 35.5213 54.4774C35.3201 54.4774 35.1238 54.5519 34.9475 54.7009C34.7711 54.85 34.6444 55.0462 34.5674 55.2872V57.354H33.8296V53.8712H34.5003V54.5742C34.6394 54.3308 34.8208 54.1445 35.0468 54.0128C35.2729 53.8812 35.5312 53.8166 35.8219 53.8166C36.1125 53.8166 36.3411 53.8911 36.51 54.0426C36.6789 54.1942 36.7808 54.383 36.823 54.6065C36.9745 54.3507 37.1609 54.1544 37.3844 54.0178C37.608 53.8812 37.8589 53.8141 38.1471 53.8141C38.3533 53.8141 38.5247 53.8513 38.6638 53.9284C38.8029 54.0029 38.9097 54.1072 38.9867 54.2389C39.0637 54.3705 39.1184 54.5196 39.1507 54.691C39.1855 54.8624 39.2004 55.0413 39.2004 55.2325V57.354L39.1979 57.3565Z" fill="white"/>
<path d="M41.6422 57.4238C41.3689 57.4238 41.123 57.3766 40.8994 57.2797C40.6783 57.1853 40.487 57.0536 40.3256 56.8872C40.1641 56.7208 40.0399 56.5295 39.9529 56.3134C39.866 56.0972 39.8213 55.8687 39.8213 55.6228C39.8213 55.2949 39.8983 54.9967 40.0498 54.7235C40.2014 54.4502 40.415 54.2316 40.6883 54.0652C40.9615 53.8987 41.282 53.8168 41.6471 53.8168C42.0123 53.8168 42.3303 53.8987 42.5961 54.0652C42.8619 54.2316 43.0681 54.4502 43.2171 54.7185C43.3662 54.9868 43.4382 55.2799 43.4382 55.588C43.4382 55.6401 43.4382 55.6923 43.4308 55.737C43.4233 55.7817 43.4208 55.8215 43.4184 55.8538H40.6063C40.6187 56.0575 40.6758 56.2339 40.7777 56.3879C40.8771 56.5394 41.0062 56.6587 41.1627 56.7456C41.3192 56.8325 41.4882 56.8748 41.667 56.8748C41.8633 56.8748 42.0496 56.8251 42.2284 56.7282C42.4048 56.6288 42.5241 56.4997 42.5886 56.3382L43.2196 56.5195C43.1426 56.6885 43.0283 56.8425 42.8743 56.9791C42.7203 57.1157 42.5365 57.2226 42.3278 57.3021C42.1167 57.3791 41.8881 57.4188 41.6422 57.4188V57.4238ZM40.5889 55.3694H42.7104C42.6979 55.1731 42.6408 54.9967 42.539 54.8452C42.4371 54.6937 42.3104 54.5744 42.1564 54.49C42.0024 54.4055 41.831 54.3608 41.6422 54.3608C41.4534 54.3608 41.2894 54.403 41.1354 54.49C40.9814 54.5744 40.8547 54.6937 40.7553 54.8452C40.656 54.9967 40.6013 55.1706 40.5864 55.3694H40.5889Z" fill="white"/>
</g>
<defs>
<clipPath id="clip0_687_4937">
<rect width="120.725" height="60" fill="white"/>
</clipPath>
</defs>
</svg>
